<svg width="24" height="24" viewBox="0 0 24 24" fill="none" xmlns="http://www.w3.org/2000/svg">
<path d="M18.02 5.16396C17.2688 4.41698 16.2535 3.99603 15.1941 3.99229C14.1347 3.98855 13.1165 4.40231 12.36 5.14396L5.69999 11.688C5.51115 11.8739 5.25635 11.9774 4.99134 11.9759C4.72634 11.9744 4.47272 11.868 4.28599 11.68C4.1937 11.5869 4.12072 11.4766 4.07124 11.3552C4.02177 11.2339 3.99678 11.1039 3.99771 10.9729C3.99864 10.8418 4.02547 10.7123 4.07666 10.5916C4.12785 10.471 4.20239 10.3617 4.29599 10.27L10.954 3.72796C12.0868 2.61606 13.612 1.99528 15.1993 2.00015C16.7866 2.00502 18.3081 2.63513 19.434 3.75396C19.9926 4.30916 20.4358 4.96933 20.7383 5.69648C21.0408 6.42363 21.1965 7.20341 21.1965 7.99096C21.1965 8.77852 21.0408 9.5583 20.7383 10.2854C20.4358 11.0126 19.9926 11.6728 19.434 12.228L10.77 20.856C10.0333 21.5883 9.03674 21.9993 7.99799 21.9993C6.95925 21.9993 5.9627 21.5883 5.22599 20.856C4.86214 20.4941 4.5734 20.0639 4.37638 19.5901C4.17935 19.1162 4.07792 18.6081 4.07792 18.095C4.07792 17.5818 4.17935 17.0737 4.37638 16.5999C4.5734 16.126 4.86214 15.6958 5.22599 15.334L13.306 7.28796C13.4937 7.10159 13.7475 6.997 14.012 6.997C14.2765 6.997 14.5303 7.10159 14.718 7.28796C14.8106 7.38031 14.8841 7.49003 14.9343 7.61083C14.9845 7.73164 15.0103 7.86116 15.0103 7.99196C15.0103 8.12277 14.9845 8.25229 14.9343 8.37309C14.8841 8.4939 14.8106 8.60362 14.718 8.69596L6.63999 16.742C6.46167 16.9193 6.32015 17.1301 6.22358 17.3623C6.12702 17.5945 6.0773 17.8435 6.0773 18.095C6.0773 18.3464 6.12702 18.5954 6.22358 18.8276C6.32015 19.0598 6.46167 19.2707 6.63999 19.448C7.00103 19.808 7.49011 20.0102 7.99999 20.0102C8.50988 20.0102 8.99895 19.808 9.35999 19.448L18.02 10.82C18.3927 10.4493 18.6885 10.0087 18.8904 9.52338C19.0922 9.03804 19.1961 8.5176 19.1961 7.99196C19.1961 7.46633 19.0922 6.94588 18.8904 6.46055C18.6885 5.97522 18.3927 5.53458 18.02 5.16396Z" fill="#545454"/>
</svg>
