<svg width="124" height="124" viewBox="0 0 124 124" fill="none" xmlns="http://www.w3.org/2000/svg">
<circle cx="62" cy="62" r="62" fill="#D9D9D9"/>
<path d="M62 49C60.393 49 58.8221 49.4765 57.486 50.3693C56.1498 51.2621 55.1084 52.531 54.4935 54.0157C53.8785 55.5003 53.7176 57.134 54.0311 58.7101C54.3446 60.2862 55.1185 61.7339 56.2548 62.8702C57.3911 64.0065 58.8388 64.7804 60.4149 65.0939C61.991 65.4074 63.6247 65.2465 65.1093 64.6315C66.594 64.0166 67.8629 62.9752 68.7557 61.639C69.6485 60.3029 70.125 58.732 70.125 57.125C70.125 54.9701 69.269 52.9035 67.7452 51.3798C66.2215 49.856 64.1549 49 62 49ZM62 62C61.0358 62 60.0933 61.7141 59.2916 61.1784C58.4899 60.6427 57.8651 59.8814 57.4961 58.9906C57.1271 58.0998 57.0306 57.1196 57.2187 56.1739C57.4068 55.2283 57.8711 54.3596 58.5529 53.6779C59.2346 52.9961 60.1033 52.5318 61.0489 52.3437C61.9946 52.1556 62.9748 52.2521 63.8656 52.6211C64.7564 52.9901 65.5177 53.6149 66.0534 54.4166C66.5891 55.2183 66.875 56.1608 66.875 57.125C66.8737 58.4175 66.3597 59.6568 65.4457 60.5707C64.5318 61.4847 63.2925 61.9987 62 62Z" fill="#313131"/>
<path d="M62 39.25C57.5005 39.25 53.102 40.5843 49.3608 43.0841C45.6196 45.5839 42.7036 49.1369 40.9818 53.294C39.2599 57.451 38.8093 62.0252 39.6871 66.4383C40.565 70.8514 42.7317 74.905 45.9133 78.0867C49.095 81.2683 53.1486 83.4351 57.5617 84.3129C61.9748 85.1907 66.549 84.7402 70.7061 83.0183C74.8631 81.2964 78.4161 78.3804 80.9159 74.6392C83.4157 70.898 84.75 66.4995 84.75 62C84.7431 55.9684 82.344 50.1859 78.0791 45.9209C73.8141 41.656 68.0316 39.2569 62 39.25ZM52.25 78.8626V76.625C52.2513 75.3325 52.7653 74.0932 53.6793 73.1793C54.5933 72.2653 55.8325 71.7513 57.125 71.75H66.875C68.1675 71.7513 69.4068 72.2653 70.3207 73.1793C71.2347 74.0932 71.7487 75.3325 71.75 76.625V78.8626C68.7912 80.5903 65.4263 81.5008 62 81.5008C58.5737 81.5008 55.2089 80.5903 52.25 78.8626ZM74.987 76.5047C74.9546 74.3733 74.0862 72.3399 72.5689 70.8426C71.0515 69.3453 69.0067 68.504 66.875 68.5H57.125C54.9933 68.504 52.9485 69.3453 51.4312 70.8426C49.9138 72.3399 49.0454 74.3733 49.013 76.5047C46.0662 73.8735 43.9881 70.4092 43.0539 66.5706C42.1197 62.732 42.3734 58.7002 43.7815 55.009C45.1897 51.3179 47.6857 48.1415 50.9392 45.9004C54.1927 43.6594 58.0502 42.4594 62.0008 42.4594C65.9515 42.4594 69.8089 43.6594 73.0624 45.9004C76.3159 48.1415 78.812 51.3179 80.2201 55.009C81.6282 58.7002 81.882 62.732 80.9478 66.5706C80.0136 70.4092 77.9355 73.8735 74.9886 76.5047H74.987Z" fill="#313131"/>
</svg>
